<svg width="64" height="64" xmlns="http://www.w3.org/2000/svg">

 <g>
  <title>background</title>
  <rect fill="none" id="canvas_background" height="402" width="582" y="-1" x="-1"/>
 </g>
 <g>
  <title>Layer 1</title>
  <path id="svg_3" fill="#f07066" d="m52,32c0,10.3 -7.9,18.9 -18,19.9l0,8.1c0,1.1 -0.9,2 -2,2s-2,-0.9 -2,-2l0,-8.1c-10.1,-1 -18,-9.5 -18,-19.9c0,-1.1 0.9,-2 2,-2s2,0.9 2,2c0,8.8 7.2,16 16,16s16,-7.2 16,-16c0,-1.1 0.9,-2 2,-2s2,0.9 2,2z"/>
  <path id="svg_5" fill="#4285f4" d="m44,14l0,16c0,6.6 -5.4,12 -12,12s-12,-5.4 -12,-12l0,-16c0,-6.6 5.4,-12 12,-12s12,5.4 12,12z"/>
 </g>
</svg>